# xmcd
#
# Track frame offsets:
#	150
#	9410
#	22765
#	33775
#	42755
#	55765
#	66545
#	75640
#	87565
#	96705
#	105840
#	115625
#	125820
#	135162
#	145155
#	155615
#	167690
#	177312
#	186560
#	198545
#	207697
#	217180
#	227742
#	238545
#
# Disc length: 3323 seconds
#
# Revision: 3
# Processed by: cddbd v1.5.2PL0 Copyright (c) Steve Scherf et al.
# Submitted via: EasyCDDAExtractor 8.2.3.1
#
DISCID=530cf918
DTITLE=Chet Atkins - Guitar Country - More of That Guitar Country
DYEAR=1964
DGENRE=country
TTITLE0=Freight Train
TTITLE1=A Little Bit of Blues
TTITLE2=Nine Pound Hammer
TTITLE3=Dobro
TTITLE4=Kentucky
TTITLE5=Vaya Con Dios
TTITLE6=Winter Walkin'
TTITLE7=Guitar Country
TTITLE8=Sugarfoot Rag
TTITLE9=Gone
TTITLE10=Copper Kettle
TTITLE11=Yes Ma'am
TTITLE12=Yakety Axe
TTITLE13=Back Up and Push
TTITLE14=Cloudy and Cool
TTITLE15=Alone and Foresaken
TTITLE16=Old Joe Clark
TTITLE17=Catch the Wind
TTITLE18=How's the World Treating You
TTITLE19=Understand Your Man
TTITLE20=Letter Edged in Black
TTITLE21=My Town
TTITLE22=Blowin' in the Wind
TTITLE23=The Last Letter
EXTD=
EXTT0=
EXTT1=
EXTT2=
EXTT3=
EXTT4=
EXTT5=
EXTT6=
EXTT7=
EXTT8=
EXTT9=
EXTT10=
EXTT11=
EXTT12=
EXTT13=
EXTT14=
EXTT15=
EXTT16=
EXTT17=
EXTT18=
EXTT19=
EXTT20=
EXTT21=
EXTT22=
EXTT23=
PLAYORDER=
